<?xml version="1.0" encoding="UTF-8"?>
<svg id="Capa_1" xmlns="http://www.w3.org/2000/svg" width="125" height="125" version="1.1" viewBox="0 0 125 125">
  <!-- Generator: Adobe Illustrator 30.0.0, SVG Export Plug-In . SVG Version: 2.1.1 Build 123)  -->
  <circle cx="62.5" cy="62.5" r="61.6" fill="#518ac8"/>
  <g>
    <path d="M69.8,33.8c-13-2.4-28.6-2.5-41.5.6-4.7,1.1-5.3,3.4-5.2,7.9.1,14.3,0,28.7,0,43,.2,2.1,1.7,4,3.7,4.6,1.5.5,3.1.2,4.7.3-2.2,3.2-4.6,6.3-6.9,9.5-.3.8,0,1.5.9,1.6h9.6c.2,0,.4-.1.6-.3.5-.5,1-2,1.5-2.6,0,0,0,0,.1-.1h26s.2,0,.2,0l1.4,2.5c.3.3.6.4,1,.4,3.1.2,6.4-.2,9.5,0,.7-.1,1.1-.8.8-1.5l-6.9-9.5v-.2c0,0,.1,0,.2,0,2.5,0,5,.2,6.8-1.8.8-.9,1.2-2.1,1.4-3.3v-45c-.3-5-3.9-5.5-8-6.3ZM34.6,99.1h-.2c0,.1-6.6.1-6.6.1l6.6-9h5.2l-4.9,8.9ZM38.6,96.2c0,0,.8-1.4.8-1.6h22s.9,1.6.9,1.6h-23.8ZM40.7,92.5c.2-.3,1.2-2.4,1.4-2.4h16.9s1.4,2.4,1.4,2.4h-19.7ZM73.2,99.2h-6.7l-5-9h5.2c2.2,3,4.4,6,6.6,9ZM75.7,85c0,1.4-1.6,3-3,3H28.2c-1.3,0-2.9-1.6-2.9-2.8v-1.9h50.4v1.8ZM75.7,81.2H25.3v-2.5h50.4v2.5ZM75.7,76.5H25.3c0-11.6,0-23.2,0-34.8,0-1.2-.2-2.7.6-3.7,1-1.5,4.3-1.9,6-2.2,11.5-2.1,23.4-2.3,34.9-.4,1.9.3,6.2.9,7.6,1.9.7.5,1.3,1.7,1.3,2.5v36.8Z" fill="#f4f3f0"/>
    <path d="M103,97.9c0-.7-.7-1.5-1.3-1.9-.1,0-.8-.3-.8-.3h-3v-28.6c0-1.1-1.1-2.9-1.9-3.6-.2-.2-.5-.3-.5-.6V20.8c0-.6-.5-1-1.1-1H25.4c-3.8.5-4.9,5.6-1.5,7.5.3.2,1.2.5,1.6.5h62.4v35.1s0,.2,0,.2c-1.6,1.2-2.3,2.9-2.4,4.9v27.8h-3c-.9,0-2.1,1.4-2.2,2.3-.2,2,.2,4.4,0,6.4,0,.4.4.7.8.8h21c.6,0,.9-.3,1-.9-.2-2,.2-4.4,0-6.4ZM25.9,25.7c-1.6,0-2.5-1.8-1.5-3.1.2-.3.9-.8,1.2-.8h67.7v40.2c-1.1-.3-2.3-.3-3.3,0V26.6c0-.3-.4-.8-.7-.8H25.9ZM87.6,67.3c.3-2.6,3.3-4.1,5.7-3.1,1.1.5,2.5,2,2.5,3.3v28.2h-8.2v-28.4ZM101,103.1h-18.6v-4.9c0-.2.5-.5.7-.5h17.3c.2,0,.7.3.7.5v4.9Z" fill="#f4f3f0"/>
    <path d="M31.4,62.9h38.1c.2,0,.7-.2.8-.4,0-.1.2-.4.2-.6v-15.6c-.2-2.1-1.9-3.7-4-3.9-10.9,0-21.8-.1-32.7.1-1.9.4-3.2,2.1-3.4,4v15.2c0,.6.4,1.1,1,1.1ZM51.6,44.6h14.9c.8,0,2,1,2,1.8v14.4h-16.9v-16.3ZM32.5,46.8c0-1.1,1.1-2.2,2.2-2.2h14.8v16.3h-17v-14.1Z" fill="#f4f3f0"/>
    <path d="M59.2,66.6c-.1-1.3-1-2.1-2.3-2.2-3.9-.3-8.2.2-12.1,0-1.3.1-2.1.9-2.3,2.2.1,2.1-.2,4.4,0,6.4,0,1.1.9,2,2,2.1h12.6c.3,0,1-.3,1.3-.5.3-.3.7-1.1.7-1.5-.1-2.1.2-4.4,0-6.5ZM57.1,72.9s0,.1-.1.1h-12.3v-6.4c.2,0,.3,0,.5,0,3.7-.2,7.7.2,11.5,0,.1,0,.4,0,.4.2v6.3Z" fill="#f4f3f0"/>
    <path d="M32.8,65.6c-2.7,1.5-3.2,5.3-1,7.5,2.2,2.3,6.2,1.7,7.7-1.1,2.3-4.2-2.4-8.8-6.6-6.4ZM33.5,71.8c-2.8-2.4,1-6.4,3.6-4,2.5,2.3-1,6.3-3.6,4Z" fill="#f4f3f0"/>
    <path d="M62.9,65.9c-2.8,2-2.4,6.5.5,8.1,2.5,1.4,5.8,0,6.8-2.6,1.6-4.5-3.5-8.3-7.3-5.5ZM66,72.4c-3.5.3-3.9-4.9-.7-5.3,3.8-.5,4.2,5,.7,5.3Z" fill="#f4f3f0"/>
    <path d="M50.2,41.6c3.1.2,4.8-3.4,2.7-5.7-1.1-1.2-3.3-1.2-4.6-.2-2.2,1.9-1.1,5.6,1.8,5.9ZM49.4,37.8c.1-.3.5-.6.8-.7,1.2-.2,2,1,1.3,1.9-.9,1.1-2.6,0-2.1-1.2Z" fill="#f4f3f0"/>
    <path d="M56.3,39.4h6.9c1.1-.3,1.1-1.9,0-2.1h-6.9c-1.1.4-1,1.8,0,2.1Z" fill="#f4f3f0"/>
    <path d="M37.3,39.3c.1,0,.4.2.6.2,2.2.2,4.6-.2,6.8,0,1.1-.3,1.1-1.9,0-2.1h-6.8c-.9,0-1.2,1.5-.5,1.9Z" fill="#f4f3f0"/>
    <path d="M47,67.6c-.4,0-.8.5-.9.8,0,.4,0,2.1,0,2.5.1,1.1,1.7,1.3,2,.3.2-.5.2-2.5,0-3-.2-.4-.7-.8-1.2-.7Z" fill="#f4f3f0"/>
    <path d="M49.8,68.4c0,.4,0,2.3,0,2.7.2.9,1.3,1.2,1.8.5,0-.1.2-.4.2-.6,0-.5,0-2.2,0-2.6-.2-1.1-1.8-1-2.1,0Z" fill="#f4f3f0"/>
    <path d="M55.4,67.9c-.5-.6-1.7-.4-1.8.4,0,.4,0,2.3,0,2.7.2,1.1,1.8,1.1,2,0,0-.4,0-2.1,0-2.5,0-.2-.1-.5-.2-.6Z" fill="#f4f3f0"/>
  </g>
</svg>