<?xml version="1.0" encoding="UTF-8"?>
<svg id="Capa_1" xmlns="http://www.w3.org/2000/svg" width="125" height="125" version="1.1" viewBox="0 0 125 125">
  <!-- Generator: Adobe Illustrator 30.0.0, SVG Export Plug-In . SVG Version: 2.1.1 Build 123)  -->
  <circle cx="62.5" cy="62.5" r="61.2" fill="#2bfffc"/>
  <g>
    <path d="M69.2,36.3c-11.9-2.3-26.1-2.3-37.9.5-4.2,1-4.8,3.2-4.8,7.2.1,13.1,0,26.2,0,39.3.2,1.9,1.5,3.6,3.4,4.2,1.4.5,2.9.1,4.3.3-2.1,3-4.2,5.8-6.2,8.7-.3.7,0,1.4.8,1.4h8.8c.2,0,.4-.1.5-.3.5-.5.9-1.8,1.4-2.3,0,0,0,0,0-.1h23.9l1.3,2.3c.3.3.5.4.9.4,2.8.2,5.9-.1,8.7,0,.6-.1,1-.7.7-1.4l-6.2-8.6v-.2s.1,0,.2,0c2.3,0,4.6.2,6.2-1.7.7-.8,1.1-1.9,1.2-3v-41.1c-.3-4.6-3.5-5-7.3-5.7h0ZM37,95.9h-.2c0,.1-6,.1-6,.1l6-8.2h4.8l-4.5,8.2h0ZM40.7,93.3s.7-1.3.8-1.4h20.1l.8,1.4h-21.7ZM42.6,89.9c.3-.3,1.1-2.2,1.3-2.2h15.4l1.2,2.2h-18,0ZM72.3,96h-6.1l-4.6-8.2h4.7c2.1,2.7,4.1,5.5,6,8.2ZM74.6,83.1c0,1.3-1.5,2.7-2.8,2.7H31.2c-1.2,0-2.6-1.4-2.6-2.6v-1.7h46v1.6h0ZM74.6,79.6H28.5v-2.3h46v2.3h0ZM74.6,75.3H28.5v-31.8c0-1.1-.1-2.4.5-3.4.9-1.4,3.9-1.7,5.5-2,10.5-1.9,21.3-2.1,31.9-.4,1.7.3,5.7.8,7,1.7.6.5,1.2,1.5,1.2,2.3v33.6h0Z"/>
    <path d="M99.5,94.8c0-.6-.6-1.4-1.2-1.7,0,0-.7-.3-.8-.3h-2.8v-26.1c0-1-1-2.6-1.7-3.3-.2-.2-.5-.3-.5-.5V24.4c0-.5-.5-.9-1-.9H28.7c-3.5.5-4.4,5.1-1.4,6.8.3.2,1.1.5,1.4.5h57v32.2c-1.4,1-2.1,2.7-2.3,4.4v25.4h-2.7c-.8,0-1.9,1.2-2,2.1-.2,1.8.1,4.1,0,5.9,0,.3.3.6.7.7h19.2c.5,0,.8-.3.9-.8-.2-1.8.2-4.1,0-5.8ZM29.1,28.9c-1.4,0-2.3-1.7-1.4-2.8.2-.3.8-.7,1.2-.7h61.8v36.7c-1-.3-2.1-.3-3,0V29.8c0-.3-.4-.7-.6-.8H29.1ZM85.3,66.9c.3-2.3,3-3.8,5.2-2.8,1,.5,2.3,1.8,2.3,3v25.8h-7.5v-25.9ZM97.6,99.6h-17v-4.4c0-.1.4-.5.6-.4h15.8c.2,0,.6.3.6.4v4.4h0Z"/>
    <path d="M34.2,62.9h34.8c.2,0,.6-.2.7-.3,0,0,.1-.4.1-.5v-14.3c-.2-1.9-1.7-3.3-3.7-3.5-10,0-19.9-.1-29.9,0-1.7.4-3,1.9-3.1,3.7v13.9c0,.5.4,1,.9,1h0ZM52.5,46.1h13.6c.7,0,1.8.9,1.8,1.7v13.1h-15.4v-14.9h0ZM35.2,48.1c0-1,1-2,2-2h13.5v14.9h-15.4v-12.9Z"/>
    <path d="M59.5,66.2c0-1.2-1-1.9-2.1-2-3.5-.3-7.5.2-11.1,0-1.2,0-1.9.8-2.1,2,.1,1.9-.2,4,0,5.9,0,1,.8,1.9,1.9,1.9h11.5c.3,0,1-.3,1.2-.5.3-.3.6-1,.6-1.4-.1-1.9.1-4,0-5.9h0ZM57.6,72h0c0,0-11.3,0-11.3,0v-5.9c.2,0,.3,0,.5,0,3.4-.2,7,.2,10.5,0,0,0,.4,0,.4.2v5.7h0Z"/>
    <path d="M35.4,65.4c-2.4,1.4-2.9,4.8-1,6.8,2.1,2.1,5.6,1.5,7-1,2.1-3.9-2.3-8-6-5.9ZM36.1,71c-2.5-2.2.9-5.9,3.3-3.6,2.3,2.1-.9,5.7-3.3,3.6Z"/>
    <path d="M62.9,65.6c-2.5,1.9-2.2,5.9.5,7.4,2.3,1.3,5.3,0,6.2-2.4,1.5-4.1-3.2-7.6-6.7-5ZM65.7,71.5c-3.2.3-3.6-4.4-.6-4.9,3.4-.5,3.9,4.6.6,4.9Z"/>
    <path d="M51.3,43.4c2.8.2,4.4-3.1,2.5-5.1-1-1.1-3-1.2-4.2-.2-2.1,1.7-1,5.1,1.7,5.3ZM50.5,39.9c.1-.3.5-.6.7-.6,1.1-.2,1.9.9,1.2,1.7-.8,1-2.4,0-1.9-1.1h0Z"/>
    <path d="M56.9,41.4h6.3c1-.3,1-1.7,0-1.9h-6.3c-1,.3-1,1.7,0,1.9h0Z"/>
    <path d="M39.5,41.3c.1,0,.4.1.5.1,2,.2,4.2-.1,6.2,0,1-.3,1-1.7,0-1.9h-6.2c-.8,0-1.2,1.4-.5,1.7h0Z"/>
    <path d="M48.4,67.2c-.3,0-.7.5-.8.8,0,.4,0,1.9,0,2.3.1,1,1.5,1.2,1.9.3.1-.5.1-2.3,0-2.7s-.6-.7-1-.6h0Z"/>
    <path d="M51,67.9c0,.3,0,2.1,0,2.4.1.8,1.2,1,1.7.5,0-.1.2-.4.2-.5v-2.4c-.2-1-1.7-1-1.9,0Z"/>
    <path d="M56,67.5c-.5-.6-1.5-.4-1.7.4,0,.4,0,2.1,0,2.5.1,1,1.7,1,1.9,0,0-.4,0-1.9,0-2.3,0-.1-.1-.5-.2-.6Z"/>
  </g>
</svg>