<?xml version="1.0" encoding="UTF-8"?>
<svg id="Capa_1" xmlns="http://www.w3.org/2000/svg" width="125" height="125" version="1.1" viewBox="0 0 125 125">
  <!-- Generator: Adobe Illustrator 30.0.0, SVG Export Plug-In . SVG Version: 2.1.1 Build 123)  -->
  <path d="M68.9,21.7c-18.5-3.5-40.5-3.6-58.9.8-6.6,1.6-7.4,4.9-7.4,11.2.2,20.3,0,40.7.1,61,.3,3,2.4,5.6,5.3,6.6,2.1.7,4.5.2,6.7.4-3.2,4.6-6.5,9-9.7,13.5-.4,1.1,0,2.1,1.3,2.2h13.7c.3-.1.6-.2.8-.4.8-.7,1.4-2.8,2.1-3.6,0,0,0-.1.1-.2h36.8c0,0,.3,0,.3,0l2,3.5c.4.5.8.6,1.4.6,4.3.3,9.1-.2,13.5,0,1-.2,1.5-1.1,1.1-2.1l-9.7-13.4v-.3c0,0,.2,0,.3.1,3.5,0,7.2.3,9.7-2.6,1.1-1.3,1.7-2.9,1.9-4.6V30.6c-.4-7.1-5.5-7.8-11.3-8.9ZM18.9,114.3l-.3.2h-9.4s9.3-12.8,9.3-12.8h7.4l-7,12.7ZM24.7,110.3c0,0,1.1-2,1.2-2.2h31.3s1.2,2.2,1.2,2.2H24.7ZM27.5,105c.4-.4,1.7-3.4,2-3.4h24c0,0,1.9,3.4,1.9,3.4h-28ZM73.7,114.5h-9.5l-7.1-12.8h7.3c3.2,4.2,6.3,8.5,9.3,12.8ZM77.3,94.4c0,2-2.3,4.2-4.3,4.2H9.8c-1.8,0-4.1-2.2-4.1-4v-2.7h71.5v2.5ZM77.3,89H5.7v-3.5h71.5v3.5ZM77.3,82.4H5.7c0-16.5,0-33,0-49.4,0-1.7-.2-3.8.8-5.3,1.4-2.1,6.1-2.6,8.5-3.1,16.3-3,33.1-3.2,49.5-.6,2.7.4,8.8,1.2,10.8,2.7,1,.7,1.9,2.4,1.9,3.6v52.2Z"/>
  <path d="M116,112.7c-.1-1-1-2.1-1.9-2.6-.1,0-1.1-.5-1.2-.5h-4.3v-40.6c0-1.6-1.6-4.1-2.7-5.2-.3-.3-.7-.4-.7-.8V3.3c0-.8-.7-1.4-1.5-1.4H5.9C.5,2.6-1,9.8,3.8,12.5c.5.3,1.7.8,2.2.8h88.5v49.7s0,.3,0,.3c-2.2,1.6-3.3,4.2-3.5,6.9v39.4h-4.2c-1.3,0-2.9,1.9-3.1,3.2-.3,2.8.2,6.3,0,9.1.1.5.5,1,1.1,1.1h29.8c.8,0,1.3-.5,1.4-1.3-.3-2.8.3-6.3,0-9ZM6.6,10.3c-2.2-.1-3.5-2.6-2.2-4.4.3-.4,1.2-1.1,1.8-1.1h96v57c-1.5-.4-3.2-.4-4.7,0V11.6c0-.4-.6-1.1-1-1.2H6.6ZM94,69.3c.5-3.6,4.7-5.9,8.1-4.4,1.6.7,3.5,2.8,3.5,4.6v40.1h-11.6v-40.3ZM113.1,120.1h-26.4v-6.9c0-.2.6-.8.9-.6h24.5c.3-.1.9.4.9.6v6.9Z"/>
  <path d="M14.5,63.1h54.1c.3,0,.9-.3,1.1-.5.1-.1.2-.6.2-.8v-22.2c-.3-2.9-2.7-5.2-5.7-5.5-15.5.1-30.9-.2-46.4.1-2.7.6-4.6,2.9-4.8,5.7v21.6c0,.8.6,1.5,1.4,1.5ZM43,37h21.1c1.1.1,2.8,1.4,2.8,2.6v20.4h-23.9v-23.1ZM16,40.1c0-1.5,1.6-3.1,3.1-3.1h20.9v23.1H16v-20Z"/>
  <path d="M53.8,68.2c-.1-1.9-1.5-3-3.3-3.1-5.5-.4-11.6.3-17.2,0-1.8.1-3,1.3-3.2,3.1.2,2.9-.3,6.2,0,9.1.1,1.6,1.3,2.9,2.9,3h17.9c.4,0,1.5-.4,1.8-.7.5-.4,1-1.6,1-2.2-.2-3,.2-6.2,0-9.2ZM50.9,77.2s-.1.1-.1.1h-17.5v-9.1c.3,0,.5-.1.7-.1,5.3-.3,10.9.3,16.3,0,.1,0,.6.1.6.3v8.9Z"/>
  <path d="M16.4,66.9c-3.8,2.2-4.5,7.5-1.5,10.6,3.2,3.3,8.7,2.4,10.9-1.5,3.2-6-3.5-12.5-9.4-9.1ZM17.4,75.6c-3.9-3.4,1.4-9.1,5.1-5.6,3.5,3.3-1.4,8.9-5.1,5.6Z"/>
  <path d="M59.1,67.3c-3.9,2.9-3.4,9.2.8,11.5,3.5,2,8.3,0,9.6-3.7,2.3-6.4-5-11.8-10.4-7.8ZM63.5,76.5c-5,.4-5.6-6.9-1-7.6,5.3-.8,6,7.1,1,7.6Z"/>
  <path d="M41.1,32.8c4.4.3,6.8-4.8,3.9-8-1.6-1.7-4.7-1.8-6.5-.3-3.2,2.7-1.5,8,2.6,8.3ZM39.9,27.4c.2-.4.7-.9,1.1-1,1.7-.3,2.9,1.4,1.9,2.7-1.3,1.6-3.7,0-2.9-1.7Z"/>
  <path d="M49.8,29.7h9.8c1.6-.4,1.5-2.7-.1-2.9h-9.8c-1.5.5-1.5,2.6,0,2.9Z"/>
  <path d="M22.8,29.5c.2.1.6.2.8.2,3.1.3,6.6-.2,9.7,0,1.6-.4,1.5-2.6-.1-2.9h-9.6c-1.3.1-1.8,2.1-.7,2.7Z"/>
  <path d="M36.6,69.7c-.5,0-1.1.7-1.2,1.2-.1.6-.1,3,0,3.6.2,1.6,2.4,1.9,2.9.4.2-.7.2-3.6,0-4.2-.2-.6-1-1.1-1.6-1Z"/>
  <path d="M40.6,70.8c-.1.5,0,3.2,0,3.8.2,1.2,1.8,1.6,2.6.7.1-.2.3-.6.3-.8,0-.7,0-3.1,0-3.7-.3-1.5-2.6-1.5-2.9,0Z"/>
  <path d="M48.4,70.2c-.7-.9-2.3-.6-2.6.6-.1.6-.1,3.3,0,3.9.2,1.5,2.6,1.6,2.9,0,.1-.6.1-2.9,0-3.6,0-.2-.2-.7-.3-.9Z"/>
</svg>